# WaveFront *.obj file (generated by Cinema 4D)

mtllib ./water_border.mtl

v -103.29985809326172 -124.64762878417969 238.171875
v 496.70013427734375 -124.64762878417969 238.171875
v 496.70013427734375 -124.64762878417969 -11.828125
v -103.29985809326172 -124.64762878417969 -11.828125
v -93.29985809326172 -124.64762878417969 228.171875
v 486.70013427734375 -124.64762878417969 228.171875
v 486.70013427734375 -124.64762878417969 -1.828125
v -93.29985809326172 -124.64762878417969 -1.828125
v -103.29985809326172 -114.64762878417969 238.171875
v 496.70013427734375 -114.64762878417969 238.171875
v 496.70013427734375 -114.64762878417969 -11.828125
v -103.29985809326172 -114.64762878417969 -11.828125
v -93.29985809326172 -114.64762878417969 228.171875
v 486.70013427734375 -114.64762878417969 228.171875
v 486.70013427734375 -114.64762878417969 -1.828125
v -93.29985809326172 -114.64762878417969 -1.828125
# 16 vertices

vn 0 0 1
vn 1 0 0
vn 0 0 -1
vn -1 0 0
vn 0 -1 0
vn 0 1 0
# 6 normals

vt 0 1 0
vt 0 0 0
vt 0.35294115543365 0 0
vt 0.35294115543365 1 0
vt 0.5 0 0
vt 0.5 1 0
vt 0.85294115543365 0 0
vt 0.85294115543365 1 0
vt 1 0 0
vt 1 1 0
vt 0.35802465677261 1 0
vt 0.35802465677261 0 0
vt 0.85802471637726 1 0
vt 0.85802471637726 0 0
vt 0.98333334922791 0.60000002384186 0
vt 0.98333334922791 0.98333334922791 0
vt 1 0.58333337306976 0
vt 0.0166666675359 0.98333334922791 0
vt 0.0166666675359 0.60000002384186 0
vt 0 0.58333337306976 0
# 20 texture coordinates

o water_border
usemtl guanzi 
f 2/4/1 10/3/1 9/2/1 1/1/1
f 3/6/2 11/5/2 10/3/2 2/4/2
f 4/8/3 12/7/3 11/5/3 3/6/3
f 1/10/4 9/9/4 12/7/4 4/8/4
f 13/2/3 14/12/3 6/11/3 5/1/3
f 14/12/4 15/5/4 7/6/4 6/11/4
f 15/5/1 16/14/1 8/13/1 7/6/1
f 16/14/2 13/9/2 5/10/2 8/13/2
f 1/17/5 4/10/5 8/16/5 5/15/5
f 3/1/5 2/20/5 6/19/5 7/18/5
f 6/19/5 2/20/5 1/17/5 5/15/5
f 4/10/5 3/1/5 7/18/5 8/16/5
f 12/10/6 9/17/6 13/15/6 16/16/6
f 10/20/6 11/1/6 15/18/6 14/19/6
f 15/18/6 11/1/6 12/10/6 16/16/6
f 9/17/6 10/20/6 14/19/6 13/15/6

